<svg width="32" height="32" viewBox="0 0 32 32" fill="none" xmlns="http://www.w3.org/2000/svg">
<path d="M12.2267 18.2778L8.58133 14.6734C8.20667 14.3029 8 13.8099 8 13.2865C8 12.7631 8.20667 12.27 8.58133 11.8982L12.2853 8.23718L13.228 9.16926L9.524 12.8303C9.40133 12.9516 9.33333 13.1138 9.33333 13.2865C9.33333 13.4592 9.40133 13.62 9.524 13.7413L13.1693 17.3457L12.2267 18.2778ZM22.5387 13.7413L18.8627 17.376L19.8053 18.3081L23.4813 14.6734C24.2547 13.9087 24.2547 12.6642 23.4813 11.8982L19.7467 8.20554L18.804 9.13762L22.5387 12.8303C22.7933 13.0808 22.7933 13.4895 22.5387 13.7413ZM32 21.1386V24.4345C32 26.2511 30.504 27.7303 28.6667 27.7303H3.33333C1.496 27.7303 0 26.2511 0 24.4345V21.1386H2.66667V4H29.3333V21.1386H32ZM4 21.1386H11.6093L12.9427 22.4569H19.0573L20.3907 21.1386H28V5.31835H4V21.1386ZM30.6667 22.4569H20.9427L19.6093 23.7753H12.3907L11.0573 22.4569H1.33333V24.4345C1.33333 25.5247 2.23067 26.412 3.33333 26.412H28.6667C29.7693 26.412 30.6667 25.5247 30.6667 24.4345V22.4569Z" fill="url(#paint0_linear_15_5)"/>
<defs>
<linearGradient id="paint0_linear_15_5" x1="16" y1="4" x2="16" y2="27.7303" gradientUnits="userSpaceOnUse">
<stop stop-color="#A20012"/>
<stop offset="1" stop-color="#FA304B"/>
</linearGradient>
</defs>
</svg>
