<svg width="14" height="14" viewBox="0 0 14 14" fill="none" xmlns="http://www.w3.org/2000/svg">
<path d="M7.00233 14C6.79467 14 6.58525 13.9255 6.41842 13.7752L4.14517 11.8328H2.04167C0.915833 11.8328 0 10.9039 0 9.76208V2.07074C0 0.928876 0.915833 0 2.04167 0H11.9583C13.0842 0 14 0.928876 14 2.07074V9.76208C14 10.9039 13.0842 11.8328 11.9583 11.8328H9.89858L7.574 13.7817C7.41358 13.9272 7.20883 14 7.00292 14H7.00233ZM2.04167 0.591641C1.23783 0.591641 0.583333 1.25546 0.583333 2.07074V9.76208C0.583333 10.5774 1.23783 11.2412 2.04167 11.2412H4.25192C4.32075 11.2412 4.38725 11.266 4.43975 11.311L6.8005 13.3279C6.91658 13.4326 7.08283 13.4332 7.19425 13.3332L9.60808 11.3092C9.66058 11.2654 9.72592 11.2412 9.79358 11.2412H11.9583C12.7627 11.2412 13.4167 10.5774 13.4167 9.76208V2.07074C13.4167 1.25546 12.7627 0.591641 11.9583 0.591641H2.04167Z" fill="url(#paint0_linear_14_266)"/>
<defs>
<linearGradient id="paint0_linear_14_266" x1="7" y1="0" x2="7" y2="14" gradientUnits="userSpaceOnUse">
<stop stop-color="#A20012"/>
<stop offset="1" stop-color="#FA304B"/>
</linearGradient>
</defs>
</svg>
