<svg width="89" height="89" viewBox="0 0 89 89" fill="none" xmlns="http://www.w3.org/2000/svg">
<path d="M89 87.1458C89 88.1693 88.1693 89 87.1458 89H9.27083C4.16075 89 0 84.8392 0 79.7292V1.85417C0 0.830667 0.830667 0 1.85417 0C2.87767 0 3.70833 0.830667 3.70833 1.85417V79.7292C3.70833 82.796 6.20404 85.2917 9.27083 85.2917H87.1458C88.1693 85.2917 89 86.1223 89 87.1458ZM79.7292 18.5417H64.8958C63.8723 18.5417 63.0417 19.3723 63.0417 20.3958C63.0417 21.4193 63.8723 22.25 64.8958 22.25H79.7292C80.5858 22.25 81.3979 22.4465 82.1247 22.7914L60.724 42.8683C58.5583 45.0377 55.028 45.0414 52.7399 42.7608L49.2022 39.7978C45.7052 36.2972 39.5716 36.3157 36.1117 39.7793L15.397 59.8562C14.6627 60.5682 14.6442 61.7437 15.3562 62.478C15.7196 62.8525 16.2054 63.0417 16.6875 63.0417C17.151 63.0417 17.6183 62.8674 17.978 62.5188L38.7113 42.4233C40.8102 40.3244 44.3591 40.2132 46.6953 42.5309L50.2331 45.4938C53.845 49.1095 59.7301 49.1095 63.3012 45.5346L84.702 25.4577L84.7428 25.4169C85.0914 26.1437 85.288 26.9559 85.288 27.8162V42.6495C85.288 43.673 86.1186 44.5037 87.1421 44.5037C88.1656 44.5037 88.9963 43.673 88.9963 42.6495V27.8125C88.9963 22.7024 84.8392 18.5417 79.7292 18.5417Z" fill="url(#paint0_linear_14_257)"/>
<defs>
<linearGradient id="paint0_linear_14_257" x1="44.5" y1="0" x2="44.5" y2="89" gradientUnits="userSpaceOnUse">
<stop stop-color="#A20012"/>
<stop offset="1" stop-color="#FA304B"/>
</linearGradient>
</defs>
</svg>
