<svg width="14" height="14" viewBox="0 0 14 14" fill="none" xmlns="http://www.w3.org/2000/svg">
<path d="M13.9994 2.04361V10.1888C13.9994 11.3633 13.2096 12.4035 12.078 12.718L7.92483 13.8738C7.31936 14.0418 6.67947 14.0424 6.074 13.8738L1.92087 12.718C0.789838 12.4029 4.26122e-05 11.3633 4.26122e-05 10.1888V2.62704C-0.00579044 2.24839 0.589181 2.24839 0.583348 2.62704V10.1888C0.583348 11.1019 1.19757 11.9111 2.07778 12.1562L6.23149 13.3119C6.7343 13.4519 7.2657 13.4519 7.76909 13.3119L11.9222 12.1556C12.8024 11.9111 13.4167 11.1019 13.4167 10.1883V2.04361C13.4108 1.66497 14.0052 1.66497 13.9994 2.04361ZM1.74996 9.28452V2.04361C1.74996 1.39717 2.0457 0.80266 2.56192 0.413514C3.07815 0.0243682 3.73086 -0.0975681 4.35208 0.0797938L6.23324 0.617714C6.54706 0.706978 6.81247 0.897758 6.99913 1.14747C7.18578 0.897758 7.45177 0.706978 7.76501 0.617714L9.64616 0.0797938C10.268 -0.0975681 10.9207 0.0237848 11.4363 0.413514C11.9526 0.80266 12.2483 1.39717 12.2483 2.04361V9.28452C12.2483 10.1912 11.6393 10.9986 10.7679 11.2483L7.4961 12.1836C7.17062 12.2763 6.82647 12.2763 6.50098 12.1836L3.2298 11.2483C2.35776 10.9992 1.74879 10.1912 1.74879 9.28452H1.74996ZM7.29136 2.02027V11.634C7.30653 11.6305 10.6086 10.6871 10.6086 10.6871C11.231 10.5091 11.6662 9.93271 11.6662 9.28452V2.04361C11.6662 1.58154 11.455 1.15738 11.0858 0.879089C10.7159 0.599627 10.2458 0.514447 9.80716 0.641051L7.926 1.17897C7.5521 1.28574 7.29136 1.63171 7.29136 2.02027ZM2.33326 9.28452C2.33326 9.93213 2.76841 10.5091 3.3908 10.6871C3.3908 10.6871 6.69289 11.6305 6.70806 11.634V2.02027C6.70806 1.63171 6.44732 1.28574 6.07342 1.17897L4.19226 0.641051C3.30038 0.355755 2.30468 1.10371 2.33326 2.04361V9.28452Z" fill="url(#paint0_linear_14_273)"/>
<defs>
<linearGradient id="paint0_linear_14_273" x1="7" y1="0" x2="7" y2="14" gradientUnits="userSpaceOnUse">
<stop stop-color="#A20012"/>
<stop offset="1" stop-color="#FA304B"/>
</linearGradient>
</defs>
</svg>
