<svg width="226" height="46" viewBox="0 0 226 46" fill="none" xmlns="http://www.w3.org/2000/svg">
<path d="M0.783936 37V5.70401H8.17594L11.2479 16.792L12.3039 21.112H12.4959L13.5519 16.792L16.6239 5.70401H24.0159V37H18.0639V27.304C18.0639 26.44 18.0959 25.368 18.1599 24.088C18.2239 22.776 18.3039 21.416 18.3999 20.008C18.4959 18.6 18.5919 17.256 18.6879 15.976C18.8159 14.696 18.9119 13.64 18.9759 12.808H18.8319L16.4319 21.16L14.0319 28.696H10.5759L8.12794 21.16L5.87194 12.808H5.72794C5.79194 13.64 5.87194 14.696 5.96794 15.976C6.09594 17.256 6.20794 18.6 6.30394 20.008C6.39994 21.416 6.47994 22.776 6.54394 24.088C6.60794 25.368 6.63994 26.44 6.63994 27.304V37H0.783936Z" fill="#232323"/>
<path d="M42.6212 37.576C40.1572 37.576 37.9172 37.096 35.9012 36.136C33.9172 35.144 32.3332 33.72 31.1492 31.864C29.9972 29.976 29.4212 27.72 29.4212 25.096C29.4212 22.504 30.0132 20.28 31.1972 18.424C32.3812 16.536 33.9172 15.096 35.8052 14.104C37.6932 13.112 39.6932 12.616 41.8052 12.616C44.2692 12.616 46.3332 13.128 47.9972 14.152C49.6612 15.144 50.9092 16.504 51.7412 18.232C52.6052 19.928 53.0372 21.864 53.0372 24.04C53.0372 24.68 52.9892 25.304 52.8932 25.912C52.8292 26.488 52.7652 26.92 52.7012 27.208H34.6532V22.456H47.9492L46.8452 23.8C46.8452 21.88 46.4292 20.44 45.5972 19.48C44.7972 18.488 43.6132 17.992 42.0452 17.992C40.8932 17.992 39.8852 18.248 39.0212 18.76C38.1572 19.272 37.4852 20.056 37.0052 21.112C36.5252 22.168 36.2852 23.496 36.2852 25.096C36.2852 26.728 36.5732 28.072 37.1492 29.128C37.7252 30.152 38.5572 30.92 39.6452 31.432C40.7332 31.944 42.0452 32.2 43.5812 32.2C44.6692 32.2 45.6932 32.056 46.6532 31.768C47.6452 31.48 48.6692 31.064 49.7252 30.52L52.0772 34.792C50.7012 35.656 49.1812 36.344 47.5172 36.856C45.8532 37.336 44.2212 37.576 42.6212 37.576Z" fill="#232323"/>
<path d="M69.7704 37.576C67.6584 37.576 65.5624 37.224 63.4824 36.52C61.4024 35.784 59.6104 34.92 58.1064 33.928L61.1304 29.512C62.5704 30.44 64.0904 31.144 65.6904 31.624C67.3224 32.104 69.0024 32.344 70.7304 32.344C72.0424 32.344 73.0024 32.152 73.6104 31.768C74.2184 31.352 74.5224 30.872 74.5224 30.328C74.5224 29.976 74.4264 29.688 74.2344 29.464C74.0744 29.208 73.7704 28.984 73.3224 28.792C72.9064 28.568 72.3144 28.36 71.5464 28.168C70.8104 27.976 69.8504 27.752 68.6664 27.496C65.4344 26.792 63.1144 25.832 61.7064 24.616C60.2984 23.4 59.5944 21.88 59.5944 20.056C59.5944 17.816 60.5704 16.024 62.5224 14.68C64.4744 13.304 67.1464 12.616 70.5384 12.616C72.6824 12.616 74.6184 12.968 76.3464 13.672C78.1064 14.344 79.6104 15.08 80.8584 15.88L77.6904 20.104C76.5064 19.368 75.2424 18.808 73.8984 18.424C72.5544 18.04 71.2264 17.848 69.9144 17.848C69.1784 17.848 68.5704 17.928 68.0904 18.088C67.6104 18.216 67.2424 18.44 66.9864 18.76C66.7304 19.048 66.6024 19.368 66.6024 19.72C66.6024 20.36 67.0184 20.84 67.8504 21.16C68.6824 21.448 70.1064 21.816 72.1224 22.264C74.5544 22.808 76.4584 23.432 77.8344 24.136C79.2104 24.84 80.1544 25.656 80.6664 26.584C81.2104 27.48 81.4824 28.584 81.4824 29.896C81.4824 31.336 81.0344 32.632 80.1384 33.784C79.2744 34.936 77.9624 35.864 76.2024 36.568C74.4744 37.24 72.3304 37.576 69.7704 37.576Z" fill="#232323"/>
<path d="M102.632 45.832V38.68L102.968 34.84H102.776C102.008 35.64 101.064 36.296 99.9437 36.808C98.8557 37.32 97.7517 37.576 96.6317 37.576C93.6237 37.576 91.1917 36.472 89.3357 34.264C87.5117 32.024 86.5997 28.968 86.5997 25.096C86.5997 22.504 87.0797 20.28 88.0397 18.424C89.0317 16.568 90.3117 15.144 91.8797 14.152C93.4477 13.128 95.0797 12.616 96.7757 12.616C98.1197 12.616 99.3197 12.856 100.376 13.336C101.432 13.816 102.44 14.584 103.4 15.64H103.592L104.168 13.192H109.688V45.832H102.632ZM98.4557 31.816C99.2557 31.816 99.9917 31.656 100.664 31.336C101.368 30.984 102.024 30.408 102.632 29.608V19.96C101.992 19.384 101.336 18.984 100.664 18.76C100.024 18.504 99.3517 18.376 98.6477 18.376C97.7837 18.376 96.9837 18.616 96.2477 19.096C95.5117 19.576 94.9197 20.312 94.4717 21.304C94.0557 22.264 93.8477 23.496 93.8477 25C93.8477 27.336 94.2477 29.064 95.0477 30.184C95.8477 31.272 96.9837 31.816 98.4557 31.816Z" fill="#232323"/>
<path d="M123.829 37.576C121.109 37.576 119.141 36.712 117.925 34.984C116.709 33.256 116.101 30.888 116.101 27.88V13.192H123.157V26.968C123.157 28.568 123.397 29.736 123.877 30.472C124.389 31.208 125.301 31.576 126.613 31.576C127.509 31.576 128.309 31.384 129.013 31C129.717 30.616 130.469 29.896 131.269 28.84V13.192H138.325V37H132.565L132.037 33.592H131.845C130.789 34.776 129.621 35.736 128.341 36.472C127.061 37.208 125.557 37.576 123.829 37.576Z" fill="#232323"/>
<path d="M155.25 37V18.712H145.65V13.192H162.306V37H155.25ZM158.466 9.44801C157.122 9.44801 156.002 9.06401 155.106 8.29601C154.21 7.49601 153.762 6.45601 153.762 5.17601C153.762 3.86401 154.21 2.80801 155.106 2.00801C156.002 1.17601 157.122 0.76001 158.466 0.76001C159.842 0.76001 160.962 1.17601 161.826 2.00801C162.722 2.80801 163.17 3.86401 163.17 5.17601C163.17 6.45601 162.722 7.49601 161.826 8.29601C160.962 9.06401 159.842 9.44801 158.466 9.44801Z" fill="#232323"/>
<path d="M189.311 37.576C186.783 37.576 184.767 37.144 183.263 36.28C181.791 35.384 180.719 34.152 180.047 32.584C179.375 31.016 179.039 29.192 179.039 27.112V18.712H173.087V13.48L179.375 13.192L180.287 5.89601H186.095V13.192H196.175V18.712H186.095V27.064C186.095 28.248 186.271 29.208 186.623 29.944C186.975 30.68 187.519 31.224 188.255 31.576C188.991 31.896 189.935 32.056 191.087 32.056C192.015 32.056 192.863 31.976 193.631 31.816C194.399 31.656 195.135 31.448 195.839 31.192L197.087 36.28C196.031 36.6 194.863 36.888 193.583 37.144C192.335 37.432 190.911 37.576 189.311 37.576Z" fill="#232323"/>
<path d="M210.221 37.576C208.621 37.576 207.229 37.256 206.045 36.616C204.893 35.976 203.997 35.112 203.357 34.024C202.717 32.936 202.397 31.72 202.397 30.376C202.397 27.72 203.597 25.688 205.997 24.28C208.429 22.872 212.461 22.008 218.093 21.688C217.997 20.952 217.757 20.328 217.373 19.816C216.989 19.304 216.429 18.92 215.693 18.664C214.989 18.376 214.093 18.232 213.005 18.232C212.237 18.232 211.469 18.328 210.701 18.52C209.933 18.68 209.133 18.936 208.301 19.288C207.501 19.608 206.653 19.992 205.757 20.44L203.261 15.832C204.349 15.192 205.485 14.632 206.669 14.152C207.885 13.672 209.133 13.304 210.413 13.048C211.725 12.76 213.053 12.616 214.397 12.616C216.637 12.616 218.557 13.016 220.157 13.816C221.757 14.584 222.989 15.768 223.853 17.368C224.717 18.936 225.149 20.936 225.149 23.368V37H219.389L218.861 34.312H218.669C217.485 35.208 216.173 35.976 214.733 36.616C213.293 37.256 211.789 37.576 210.221 37.576ZM212.477 32.104C213.533 32.104 214.525 31.896 215.453 31.48C216.381 31.032 217.261 30.488 218.093 29.848V25.912C215.757 26.04 213.933 26.28 212.621 26.632C211.341 26.984 210.445 27.432 209.933 27.976C209.421 28.52 209.165 29.144 209.165 29.848C209.165 30.328 209.293 30.744 209.549 31.096C209.837 31.448 210.221 31.704 210.701 31.864C211.213 32.024 211.805 32.104 212.477 32.104Z" fill="#232323"/>
</svg>
