<svg width="89" height="66" viewBox="0 0 89 66" fill="none" xmlns="http://www.w3.org/2000/svg">
<path d="M34.0054 39.71L23.8668 29.6853C22.8248 28.655 22.25 27.2837 22.25 25.828C22.25 24.3723 22.8248 23.001 23.8668 21.967L34.1686 11.7847L36.7904 14.377L26.4886 24.5593C26.1475 24.8967 25.9583 25.3477 25.9583 25.828C25.9583 26.3083 26.1475 26.7557 26.4886 27.093L36.6272 37.1177L34.0054 39.71ZM62.6857 27.093L52.4618 37.202L55.0836 39.7943L65.3075 29.6853C67.4583 27.5587 67.4583 24.0973 65.3075 21.967L54.9204 11.6967L52.2986 14.289L62.6857 24.5593C63.394 25.256 63.394 26.3927 62.6857 27.093ZM89 47.6667V56.8333C89 61.886 84.8392 66 79.7292 66H9.27083C4.16075 66 0 61.886 0 56.8333V47.6667H7.41667V0H81.5833V47.6667H89ZM11.125 47.6667H32.2885L35.9968 51.3333H53.0032L56.7115 47.6667H77.875V3.66667H11.125V47.6667ZM85.2917 51.3333H58.2468L54.5385 55H34.4615L30.7532 51.3333H3.70833V56.8333C3.70833 59.8657 6.20404 62.3333 9.27083 62.3333H79.7292C82.796 62.3333 85.2917 59.8657 85.2917 56.8333V51.3333Z" fill="url(#paint0_linear_14_250)"/>
<defs>
<linearGradient id="paint0_linear_14_250" x1="44.5" y1="0" x2="44.5" y2="66" gradientUnits="userSpaceOnUse">
<stop stop-color="#A20012"/>
<stop offset="1" stop-color="#FA304B"/>
</linearGradient>
</defs>
</svg>
