<svg width="398" height="406" viewBox="0 0 398 406" fill="none" xmlns="http://www.w3.org/2000/svg">
<path d="M360.224 34.5561H37.1459C16.6626 34.5561 0 51.2143 0 71.6976V282.472C0 302.96 16.6626 319.619 37.1459 319.619H167.428L150.15 354.175H120.938C106.646 354.175 95.0212 365.8 95.0212 380.092C95.0212 394.375 106.647 406 120.938 406H276.432C290.716 406 302.34 394.375 302.34 380.092C302.34 365.8 290.716 354.175 276.432 354.175H247.211L229.933 319.619H360.224C380.703 319.619 397.362 302.96 397.362 282.472V71.6976C397.362 51.2143 380.703 34.5561 360.224 34.5561ZM37.1459 51.8293H360.224C371.177 51.8293 380.092 60.7441 380.092 71.6976V259.154H164.839C165.523 257.244 166.151 255.317 166.707 253.372L195.377 246.962C199.326 246.083 202.131 242.582 202.131 238.529V215.847C202.131 211.802 199.326 208.301 195.377 207.423L166.71 201.012C164.727 194.077 161.947 187.374 158.411 180.998L174.158 156.131C176.318 152.714 175.824 148.258 172.962 145.401L156.94 129.379C154.083 126.518 149.617 126.023 146.201 128.192L121.351 143.973C115.048 140.454 108.349 137.671 101.328 135.653L94.9262 106.965C94.0399 103.016 90.5379 100.211 86.4934 100.211H63.8117C59.7672 100.211 56.2617 103.016 55.3789 106.965L48.9683 135.653C41.9557 137.671 35.2532 140.454 28.9541 143.973L17.2776 136.561V71.6985C17.2776 60.7441 26.1924 51.8293 37.1459 51.8293ZM127.4 259.154C128.846 253.553 129.577 247.779 129.577 241.876C129.577 203.766 98.5742 172.767 60.4695 172.767C44.3917 172.767 29.3117 178.185 17.2785 187.856V157.026L24.1797 161.405C27.0148 163.204 30.6334 163.2 33.4599 161.397C40.9761 156.596 49.288 153.136 58.1682 151.122C61.4206 150.383 63.955 147.835 64.6824 144.583L70.731 117.487H79.5724L85.6253 144.583C86.3483 147.836 88.8863 150.383 92.1395 151.122C101.015 153.136 109.327 156.595 116.843 161.397C119.674 163.2 123.288 163.204 126.124 161.405L149.618 146.489L155.861 152.732L140.979 176.232C139.198 179.054 139.198 182.651 140.979 185.469C145.836 193.149 149.278 201.452 151.215 210.169C151.941 213.439 154.497 215.994 157.767 216.726L184.854 222.775V231.611L157.767 237.661C154.497 238.392 151.941 240.948 151.215 244.217C150.083 249.32 148.406 254.327 146.229 259.155L127.4 259.154ZM17.2776 259.154V213.231C26.9241 198.672 42.9025 190.042 60.4686 190.042C89.0487 190.042 112.299 213.291 112.299 241.876C112.299 247.838 111.301 253.63 109.339 259.154H17.2776ZM285.063 380.092C285.063 384.851 281.191 388.722 276.432 388.722H120.938C116.171 388.722 112.299 384.851 112.299 380.092C112.299 375.324 116.171 371.453 120.938 371.453C155.193 371.453 245.369 371.453 276.432 371.453C281.191 371.453 285.063 375.324 285.063 380.092ZM227.893 354.175H169.468L186.745 319.619H210.623L227.893 354.175ZM360.224 302.34C346.138 302.34 51.2834 302.34 37.1467 302.34C26.1933 302.34 17.2785 293.426 17.2785 282.472V276.432C29.9838 276.432 368.08 276.432 380.093 276.432V282.472C380.093 293.426 371.178 302.34 360.224 302.34Z" fill="url(#paint0_linear_14_163)"/>
<path d="M310.98 164.128H250.515V181.402H310.98V164.128Z" fill="url(#paint1_linear_14_163)"/>
<path d="M328.258 138.216H233.237V155.49H328.258V138.216Z" fill="url(#paint2_linear_14_163)"/>
<path d="M354.175 138.216H336.897V155.49H354.175V138.216Z" fill="url(#paint3_linear_14_163)"/>
<path d="M310.98 224.598H293.702V241.876H310.98V224.598Z" fill="url(#paint4_linear_14_163)"/>
<path d="M336.897 224.598H319.619V241.876H336.897V224.598Z" fill="url(#paint5_linear_14_163)"/>
<path d="M146.855 25.9168C151.621 25.9168 155.49 22.0451 155.49 17.2776C155.49 12.5066 151.621 8.63922 146.855 8.63922C142.08 8.63922 138.216 12.5066 138.216 17.2776C138.216 22.0442 142.08 25.9168 146.855 25.9168Z" fill="url(#paint6_linear_14_163)"/>
<path d="M310.98 17.2776C315.755 17.2776 319.619 13.4093 319.619 8.63924C319.619 3.86826 315.755 0 310.98 0C306.212 0 302.34 3.86826 302.34 8.63924C302.34 13.4093 306.212 17.2776 310.98 17.2776Z" fill="url(#paint7_linear_14_163)"/>
<path d="M310.98 336.897C306.212 336.897 302.34 340.76 302.34 345.536C302.34 350.303 306.212 354.175 310.98 354.175C315.755 354.175 319.619 350.303 319.619 345.536C319.619 340.76 315.755 336.897 310.98 336.897Z" fill="url(#paint8_linear_14_163)"/>
<path d="M103.66 336.896C103.66 332.129 99.7914 328.257 95.0205 328.257C90.2538 328.257 86.3821 332.129 86.3821 336.896C86.3821 341.664 90.2538 345.536 95.0205 345.536C99.7923 345.536 103.66 341.663 103.66 336.896Z" fill="url(#paint9_linear_14_163)"/>
<path d="M354.175 190.042H233.237V207.319H354.175V190.042Z" fill="url(#paint10_linear_14_163)"/>
<path d="M285.063 224.598H233.237V241.876H285.063V224.598Z" fill="url(#paint11_linear_14_163)"/>
<path d="M322.149 118.408C325.521 121.78 330.994 121.78 334.368 118.408L351.646 101.129C355.019 97.757 355.019 92.2838 351.646 88.9105L334.368 71.6372C330.995 68.2596 325.522 68.2596 322.149 71.6372C318.776 75.0096 318.776 80.4777 322.149 83.851L333.318 95.0196L322.149 106.189C318.775 109.562 318.775 115.035 322.149 118.408Z" fill="url(#paint12_linear_14_163)"/>
<path d="M253.046 118.408C256.418 121.78 261.882 121.78 265.265 118.408C268.637 115.035 268.637 109.562 265.265 106.189L254.095 95.0196L265.265 83.851C268.637 80.4777 268.637 75.0096 265.265 71.6372C261.883 68.2596 256.419 68.2596 253.046 71.6372L235.767 88.9105C232.395 92.2838 232.395 97.7562 235.767 101.129L253.046 118.408Z" fill="url(#paint13_linear_14_163)"/>
<path d="M285.063 120.937C288.229 120.937 291.283 119.191 292.789 116.162L310.067 81.6058C312.202 77.3376 310.472 72.1494 306.203 70.0157C301.936 67.8863 296.747 69.6157 294.613 73.8797L277.343 108.436C274.444 114.222 278.712 120.937 285.063 120.937Z" fill="url(#paint14_linear_14_163)"/>
<path d="M51.8304 336.897C37.5416 336.897 25.917 348.521 25.917 362.814C25.917 377.098 37.5416 388.722 51.8304 388.722C66.1182 388.722 77.7429 377.098 77.7429 362.814C77.7429 348.521 66.1182 336.897 51.8304 336.897ZM51.8304 371.453C47.0672 371.453 43.1955 367.572 43.1955 362.814C43.1955 358.047 47.0672 354.175 51.8304 354.175C56.5927 354.175 60.4688 358.047 60.4688 362.814C60.4688 367.572 56.5927 371.453 51.8304 371.453Z" fill="url(#paint15_linear_14_163)"/>
<path d="M358.495 328.257C341.819 328.257 328.258 341.819 328.258 358.494C328.258 375.162 341.819 388.722 358.495 388.722C375.162 388.722 388.731 375.162 388.731 358.494C388.731 341.819 375.162 328.257 358.495 328.257ZM358.495 371.453C351.344 371.453 345.536 365.636 345.536 358.494C345.536 351.344 351.344 345.536 358.495 345.536C365.637 345.536 371.454 351.344 371.454 358.494C371.454 365.635 365.637 371.453 358.495 371.453Z" fill="url(#paint16_linear_14_163)"/>
<defs>
<linearGradient id="paint0_linear_14_163" x1="198.681" y1="34.5561" x2="198.681" y2="406" gradientUnits="userSpaceOnUse">
<stop stop-color="#A20012"/>
<stop offset="1" stop-color="#FA304B"/>
</linearGradient>
<linearGradient id="paint1_linear_14_163" x1="280.748" y1="164.128" x2="280.748" y2="181.402" gradientUnits="userSpaceOnUse">
<stop stop-color="#A20012"/>
<stop offset="1" stop-color="#FA304B"/>
</linearGradient>
<linearGradient id="paint2_linear_14_163" x1="280.747" y1="138.216" x2="280.747" y2="155.49" gradientUnits="userSpaceOnUse">
<stop stop-color="#A20012"/>
<stop offset="1" stop-color="#FA304B"/>
</linearGradient>
<linearGradient id="paint3_linear_14_163" x1="345.536" y1="138.216" x2="345.536" y2="155.49" gradientUnits="userSpaceOnUse">
<stop stop-color="#A20012"/>
<stop offset="1" stop-color="#FA304B"/>
</linearGradient>
<linearGradient id="paint4_linear_14_163" x1="302.341" y1="224.598" x2="302.341" y2="241.876" gradientUnits="userSpaceOnUse">
<stop stop-color="#A20012"/>
<stop offset="1" stop-color="#FA304B"/>
</linearGradient>
<linearGradient id="paint5_linear_14_163" x1="328.258" y1="224.598" x2="328.258" y2="241.876" gradientUnits="userSpaceOnUse">
<stop stop-color="#A20012"/>
<stop offset="1" stop-color="#FA304B"/>
</linearGradient>
<linearGradient id="paint6_linear_14_163" x1="146.853" y1="8.63922" x2="146.853" y2="25.9168" gradientUnits="userSpaceOnUse">
<stop stop-color="#A20012"/>
<stop offset="1" stop-color="#FA304B"/>
</linearGradient>
<linearGradient id="paint7_linear_14_163" x1="310.98" y1="0" x2="310.98" y2="17.2776" gradientUnits="userSpaceOnUse">
<stop stop-color="#A20012"/>
<stop offset="1" stop-color="#FA304B"/>
</linearGradient>
<linearGradient id="paint8_linear_14_163" x1="310.98" y1="336.897" x2="310.98" y2="354.175" gradientUnits="userSpaceOnUse">
<stop stop-color="#A20012"/>
<stop offset="1" stop-color="#FA304B"/>
</linearGradient>
<linearGradient id="paint9_linear_14_163" x1="95.0209" y1="328.257" x2="95.0209" y2="345.536" gradientUnits="userSpaceOnUse">
<stop stop-color="#A20012"/>
<stop offset="1" stop-color="#FA304B"/>
</linearGradient>
<linearGradient id="paint10_linear_14_163" x1="293.706" y1="190.042" x2="293.706" y2="207.319" gradientUnits="userSpaceOnUse">
<stop stop-color="#A20012"/>
<stop offset="1" stop-color="#FA304B"/>
</linearGradient>
<linearGradient id="paint11_linear_14_163" x1="259.15" y1="224.598" x2="259.15" y2="241.876" gradientUnits="userSpaceOnUse">
<stop stop-color="#A20012"/>
<stop offset="1" stop-color="#FA304B"/>
</linearGradient>
<linearGradient id="paint12_linear_14_163" x1="336.897" y1="69.104" x2="336.897" y2="120.937" gradientUnits="userSpaceOnUse">
<stop stop-color="#A20012"/>
<stop offset="1" stop-color="#FA304B"/>
</linearGradient>
<linearGradient id="paint13_linear_14_163" x1="250.516" y1="69.104" x2="250.516" y2="120.937" gradientUnits="userSpaceOnUse">
<stop stop-color="#A20012"/>
<stop offset="1" stop-color="#FA304B"/>
</linearGradient>
<linearGradient id="paint14_linear_14_163" x1="293.699" y1="69.1044" x2="293.699" y2="120.937" gradientUnits="userSpaceOnUse">
<stop stop-color="#A20012"/>
<stop offset="1" stop-color="#FA304B"/>
</linearGradient>
<linearGradient id="paint15_linear_14_163" x1="51.8299" y1="336.897" x2="51.8299" y2="388.722" gradientUnits="userSpaceOnUse">
<stop stop-color="#A20012"/>
<stop offset="1" stop-color="#FA304B"/>
</linearGradient>
<linearGradient id="paint16_linear_14_163" x1="358.495" y1="328.257" x2="358.495" y2="388.722" gradientUnits="userSpaceOnUse">
<stop stop-color="#A20012"/>
<stop offset="1" stop-color="#FA304B"/>
</linearGradient>
</defs>
</svg>
